<svg width="354" height="493" viewBox="0 0 354 493" fill="none" xmlns="http://www.w3.org/2000/svg">
<path fill-rule="evenodd" clip-rule="evenodd" d="M124.043 179.193C128.184 175.001 129.891 166.951 129.227 162.455C128.752 159.773 127.343 157.322 125.228 155.501C123.114 153.679 120.418 152.593 117.577 152.419C110.913 152.061 103.312 152.523 97.7174 155.967C93.6666 158.667 89.9565 161.806 86.6613 165.321C87.3261 162.787 87.4629 160.152 87.0639 157.568C86.4272 153.058 81.8307 152.359 79.1528 153.438C78.3316 153.684 77.5913 154.13 77.0041 154.731C76.4169 155.333 76.0028 156.069 75.8022 156.869C75.5686 157.797 75.4809 158.754 75.5418 159.707C74.8152 158.607 73.683 157.809 72.3695 157.469C71.4747 157.322 70.5572 157.36 69.6791 157.581C68.801 157.802 67.9828 158.2 67.2796 158.749C65.822 159.685 64.7779 161.102 64.3479 162.729C63.8436 164.657 65.3959 167.915 65.3959 167.915C63.9818 168.072 62.6767 168.718 61.7258 169.731C60.0426 171.295 58.9738 173.365 58.699 175.593C58.4803 177.344 58.818 179.117 59.6682 180.681C60.6413 181.915 61.7287 183.062 62.9171 184.11C62.1157 184.803 61.3721 185.555 60.6932 186.358C59.3769 187.752 58.3742 189.389 57.7473 191.168C57.1062 193.45 57.0915 195.851 57.7046 198.14C58.2221 199.815 59.3621 201.251 60.9102 202.178C62.4583 203.106 64.3077 203.46 66.1102 203.175C64.9928 204.705 64.0958 206.372 63.4433 208.131C63.1576 209.095 63.0994 210.107 63.2726 211.096C63.4459 212.084 63.8464 213.023 64.4453 213.845C66.257 215.741 68.2275 217.491 70.337 219.08L74.5496 227.526L78.876 226.062C78.876 226.062 79.5324 229.996 82.1698 231.557C84.5266 232.819 87.2979 233.176 89.9201 232.555C91.6506 232.105 93.1843 229.509 93.1843 229.509C93.1843 229.509 95.3371 232.491 98.3398 232.896C101.343 233.302 117.626 229.193 117.626 229.193L103.871 192.35C103.871 192.35 119.894 183.383 124.039 179.193H124.043Z" fill="#061428"/>
<path fill-rule="evenodd" clip-rule="evenodd" d="M119.639 167.16C122.535 172.846 124.57 178.897 125.684 185.131C126.669 191.736 126.823 200.019 125.674 204.786C124.806 208.641 122.532 212.074 119.259 214.474C116.782 216.232 111.316 218.536 106.191 217.076C101.066 215.617 97.0665 213.155 94.835 210.09C95.4622 208.103 95.7756 206.038 95.7648 203.962C95.7385 202.061 95.4254 200.173 94.835 198.358C91.8486 199.382 89.6619 197.555 88.9607 194.677C88.2595 191.8 89.7636 189.705 92.5378 190.06C95.3119 190.416 99.6481 187.538 98.8944 183.561C102.332 183.584 105.735 182.897 108.869 181.547C111.837 180.382 114.365 178.382 116.117 175.813C117.867 173.266 119.641 169.435 119.641 167.166L119.639 167.16Z" fill="#E88D95"/>
<path fill-rule="evenodd" clip-rule="evenodd" d="M97.1332 156.332C97.0238 156.541 95.7637 157.291 95.3939 157.613C94.4619 158.496 93.588 159.433 92.7773 160.42C90.5314 162.926 88.7011 165.747 87.3505 168.784C85.2217 173.668 83.3829 179.305 83.2024 184.646C83.0926 186.45 83.2648 188.259 83.7132 190.014C83.8715 190.634 84.0628 191.245 84.2864 191.845C84.3575 192.046 84.8728 193.005 84.6704 193.005C83.8624 192.225 83.1157 191.389 82.4366 190.504C80.728 188.109 78.8683 185.962 78.1595 183.06C77.4463 180.45 77.0813 177.764 77.0732 175.067C77.365 168.555 80.2954 162.406 85.2447 157.921C87.5539 155.731 91.0063 153.895 94.3099 153.895C95.9034 153.917 97.4422 154.454 98.6756 155.418L97.1332 156.335V156.332Z" fill="#AB8DE5"/>
<path fill-rule="evenodd" clip-rule="evenodd" d="M154.608 442.525C157.46 444.754 161.539 446.95 164.016 448.634C166.047 450.14 168.306 451.341 170.716 452.197C172.638 452.745 172.96 454.678 171.288 455.205C169.615 455.732 166.803 455.422 163.771 455.368L153.51 455.186C150.507 455.131 146.383 455.265 144.444 454.251C142.504 453.237 142.503 450.98 142.503 449.17C142.503 447.36 144.768 442.763 144.768 442.763C144.768 442.763 151.762 440.295 154.614 442.525H154.608Z" fill="#061428"/>
<path fill-rule="evenodd" clip-rule="evenodd" d="M74.0093 413.373C73.5028 416.092 73.3529 419.542 73.0018 423.639C72.834 427.683 72.9183 431.733 73.2545 435.767C73.3639 438.4 71.5502 439.965 69.7792 437.176C67.3336 433.059 65.3383 428.711 63.825 424.203C62.4445 419.848 62.3001 414.592 61.6274 412.346C60.9546 410.099 60.4 407.601 61.3999 407.405L69.1086 405.886C69.1086 405.886 74.5136 410.657 74.0093 413.376V413.373Z" fill="#061428"/>
<path fill-rule="evenodd" clip-rule="evenodd" d="M152.266 273.16C152.848 277.172 154.369 286.229 155.358 294.488C156.347 302.748 155.981 313.946 156.452 318.872C156.924 323.799 156.976 337.764 157.109 341.873L157.452 352.531C157.507 354.244 157.424 378.188 156.832 384.907C156.24 391.625 155.699 405.061 155.443 413.898L154.994 429.409L154.615 442.528L144.769 442.766C144.769 442.766 141.127 433.566 139.046 426.275C136.965 418.984 136.678 414.957 135.379 407.901C134.081 400.845 131.825 392.805 131.058 389.069C130.292 385.332 127.543 375.281 127.543 375.281L137.242 348.018L129.366 300.899L140.415 274.239C140.415 274.239 151.682 269.155 152.262 273.167L152.266 273.16Z" fill="#8669BE"/>
<path fill-rule="evenodd" clip-rule="evenodd" d="M112.615 274.233C110.427 276.285 108.349 280.402 106.818 283.322C105.286 286.242 104.162 292.084 103.928 295.727C103.69 302.106 103.841 308.492 104.382 314.854C104.966 320.472 107.28 327.173 109.96 332.83L116.086 345.739C110.652 351.158 105.757 357.05 101.467 363.337C95.0483 372.988 88.4215 378.936 82.7364 385.946L67.9972 404.118L74.0968 413.895L77.0503 411.7C77.0503 411.7 84.2909 405.836 91.4745 400.965L117.558 383.277C125.042 378.201 135.16 368.222 140.4 363.051C145.641 357.88 146.537 353.087 146.721 348.251C146.905 343.414 145.966 325.626 145.559 319.535L143.956 295.519L143.252 284.98C143.252 284.98 147.616 280.025 149.202 277.661L152.169 273.239C152.165 272.327 152.074 271.417 151.898 270.521L150.737 264.186C150.459 262.676 148.29 260.459 148.29 260.459C148.29 260.459 114.783 272.178 112.601 274.23L112.615 274.233Z" fill="#AB8DE5"/>
<path fill-rule="evenodd" clip-rule="evenodd" d="M162.687 173.508C162.235 174.717 161.704 175.897 161.098 177.042C158.474 181.514 154.346 185.009 149.385 186.961C146.371 188.161 142.356 188.974 139.381 187.128C134.706 184.227 135.627 178.117 137.248 173.779C137.925 172.286 138.859 170.913 140.013 169.717C140.406 169.279 140.888 168.978 141.312 168.577L147.819 169.074C147.71 169.133 147.466 169.098 147.333 169.158C146.969 169.371 146.643 169.637 146.367 169.947C144.996 171.143 143.421 172.827 143.123 174.652C143.07 175.022 143.06 175.396 143.094 175.768C143.129 176.252 143.292 176.719 143.567 177.127C144.516 178.336 146.771 177.508 147.759 176.85C148.563 176.316 149.315 175.716 150.007 175.055C150.827 174.161 151.464 173.128 151.884 172.009L162.687 173.505V173.508Z" fill="#EDC152"/>
<path fill-rule="evenodd" clip-rule="evenodd" d="M136.928 184.579C135.184 181.419 136.013 177.085 137.248 173.779C137.924 172.286 138.859 170.913 140.013 169.717C140.406 169.279 140.888 168.978 141.312 168.577L147.819 169.074C147.71 169.133 147.466 169.098 147.332 169.158C146.969 169.371 146.643 169.637 146.367 169.947C144.996 171.143 143.421 172.827 143.123 174.652C143.07 175.022 143.06 175.396 143.094 175.768C143.129 176.252 143.292 176.719 143.567 177.127C144.516 178.336 146.771 177.508 147.759 176.85C148.563 176.316 149.315 175.716 150.007 175.055C150.827 174.161 151.464 173.128 151.884 172.009L160.276 173.171C160.285 173.805 160.134 174.432 159.835 174.999C159.536 175.565 159.097 176.054 158.557 176.423C158.067 176.744 157.531 176.995 156.965 177.17C156.339 177.328 155.816 177.249 155.343 177.765C154.566 178.613 154.759 179.778 154.314 180.748C153.994 181.371 153.435 181.852 152.754 182.091C152.01 182.33 151.211 182.371 150.445 182.21C149.869 182.112 149.054 181.727 148.476 181.97C146.863 182.656 146.865 184.963 145.386 185.847C145.022 186.036 144.614 186.135 144.2 186.135C143.786 186.135 143.378 186.036 143.014 185.847C141.663 185.274 140.236 184.041 138.739 183.849C138.395 183.794 138.042 183.833 137.721 183.963C137.399 184.093 137.123 184.307 136.925 184.581L136.928 184.579Z" fill="#D2416E"/>
<path fill-rule="evenodd" clip-rule="evenodd" d="M143.496 214.97C147.538 214.133 151.645 213.623 155.776 213.444L168.937 212.45C171.975 212.22 175.522 212.478 175.5 210.096C175.479 207.715 172.248 194.21 170.411 189.157C168.573 184.104 168.355 176.875 166.776 175.85C165.196 174.826 166.262 174.596 164.854 174.604C163.544 174.641 162.264 174.229 161.244 173.444C160.29 172.691 159.403 173.444 158.099 173.444C156.795 173.444 153.126 175.573 149.206 173.444C145.287 171.316 145.473 170.046 145.276 169.335C145.079 168.624 144.109 169.693 142.062 169.209C140.015 168.725 139.998 165.609 141.285 163.998L144.627 159.816C145.915 158.206 149.858 157.239 152.244 157.219C154.63 157.2 157.495 157.173 160.392 157.15C163.288 157.127 166.299 157.856 167.33 158.855C168.613 160.097 169.658 161.807 170.73 162.845C173.037 165.665 175.111 168.652 176.932 171.779L182.697 183.675C184.409 187.206 188.755 193.084 191.38 201.588C194.004 210.092 196.99 213.484 196.468 218.08C195.947 222.676 194.499 223.112 188.67 226.063C182.841 229.014 173.969 235.316 164.016 238.554L148.084 243.735C148.084 243.735 139.94 215.894 143.496 214.97Z" fill="#E88D95"/>
<path fill-rule="evenodd" clip-rule="evenodd" d="M19.4761 226.719C18.6848 226.399 18.0284 225.835 17.612 225.116C17.1956 224.398 17.0431 223.567 17.179 222.756C17.2249 220.726 19.3547 218.588 22.6397 218.395C25.9247 218.203 33.4289 218.655 36.9108 218.479C40.3927 218.303 42.132 218.703 43.8603 219.995C44.6977 220.551 45.2861 221.387 45.509 222.337C45.7318 223.288 45.5729 224.284 45.0636 225.128C44.7035 225.813 44.1337 226.376 43.4302 226.743C42.7266 227.111 41.9228 227.264 41.1256 227.184C39.0012 227.224 21.6858 227.897 19.4849 226.719H19.4761Z" fill="#EDC152"/>
<path fill-rule="evenodd" clip-rule="evenodd" d="M49.4686 227.067C48.5888 226.553 47.8956 225.793 47.4831 224.89C47.0706 223.987 46.9587 222.984 47.1627 222.018C47.6506 220.136 48.3868 219.07 51.3118 218.587C54.6949 217.968 58.1295 217.644 61.5738 217.619C65.6551 217.619 70.6783 218.037 72.2492 218.587C73.0817 218.827 73.7861 219.363 74.2175 220.085C74.6489 220.807 74.7744 221.659 74.5682 222.467C74.3836 223.52 73.8568 224.492 73.0625 225.244C72.2682 225.996 71.2466 226.49 70.1423 226.656C67.6668 226.939 51.1631 227.931 49.4675 227.067H49.4686Z" fill="#EDC152"/>
<path fill-rule="evenodd" clip-rule="evenodd" d="M32.569 218.73C30.5617 218.174 29.4907 215.362 30.5398 213.415C31.5888 211.467 33.9615 210.039 38.4028 209.804L47.3728 209.329C49.4107 209.224 54.3026 209.349 56.1699 209.507C58.0372 209.665 60.5324 210.923 60.6418 213.094C60.711 213.802 60.6266 214.515 60.3939 215.191C60.1612 215.866 59.7851 216.488 59.2893 217.018C58.7934 217.548 58.1884 217.974 57.5122 218.271C56.836 218.567 56.1031 218.726 55.3594 218.739C51.2496 218.887 34.5752 219.286 32.5668 218.731L32.569 218.73Z" fill="#EDC152"/>
<path fill-rule="evenodd" clip-rule="evenodd" d="M17.1768 223.322V222.756C17.2227 220.726 19.3525 218.588 22.6375 218.395C25.9225 218.203 33.4267 218.655 36.9086 218.479C40.3905 218.303 42.132 218.703 43.8603 219.995C44.5565 220.508 45.0873 221.198 45.3918 221.987C44.7369 222.696 43.9348 223.268 43.0363 223.665C42.1378 224.063 41.1626 224.277 40.1728 224.295C38.0561 224.214 36.9644 221.898 34.8673 222.032C33.4267 222.124 32.9093 223.415 31.8711 224.158C31.5755 224.343 31.244 224.47 30.8963 224.531C30.5485 224.592 30.1915 224.586 29.8463 224.513C28.1584 224.343 27.3544 222.779 25.8525 222.249C25.2606 222.076 24.6328 222.049 24.0268 222.169C23.7535 222.184 23.4843 222.239 23.2282 222.332C22.4363 222.844 21.6903 223.419 20.9977 224.049C20.4869 224.344 19.8915 224.476 19.2971 224.427C18.7028 224.378 18.14 224.15 17.6898 223.775C17.5056 223.637 17.333 223.486 17.1735 223.322H17.1768Z" fill="#D2416E"/>
<path fill-rule="evenodd" clip-rule="evenodd" d="M30.2521 214.148C30.3184 213.894 30.415 213.648 30.5398 213.416C31.5877 211.468 33.9615 210.04 38.4027 209.805L47.3727 209.33C49.4107 209.225 54.3026 209.35 56.1699 209.508C57.0187 209.564 57.8407 209.815 58.5661 210.24C59.2915 210.665 59.8989 211.251 60.3366 211.948C60.2149 211.94 60.0928 211.948 59.9734 211.972C57.6029 212.425 57.033 215.561 54.3114 215.561C53.3372 215.513 52.4055 215.165 51.6554 214.569C50.8382 214.011 49.9905 212.977 48.855 213.111C46.9111 213.344 46.0994 216.181 43.9532 215.986C42.8654 215.833 41.8633 215.334 41.1091 214.569C40.6299 214.145 39.9178 213.38 39.198 213.38C38.7915 213.359 38.3838 213.376 37.9805 213.428C37.3482 213.549 36.8866 214.265 36.4567 214.647C35.6835 215.411 34.6418 215.873 33.5327 215.946C32.8799 215.9 32.2461 215.715 31.6782 215.404C31.1102 215.093 30.6225 214.664 30.251 214.149L30.2521 214.148Z" fill="#D2416E"/>
<path fill-rule="evenodd" clip-rule="evenodd" d="M47.0533 223.187C47.0284 222.794 47.0653 222.399 47.1627 222.016C47.6506 220.134 48.3868 219.068 51.3118 218.585C54.6949 217.966 58.1295 217.642 61.5738 217.617C65.6551 217.617 70.6783 218.035 72.2492 218.585C73.0817 218.825 73.7861 219.361 74.2175 220.083C74.6489 220.805 74.7744 221.657 74.5682 222.464C74.55 222.55 74.5292 222.636 74.5059 222.721C73.3971 222.61 72.3283 222.263 71.3784 221.705C70.4095 221.023 69.2311 220.667 68.0278 220.692C65.3532 221 64.0624 224.142 61.4731 224.414C60.2925 224.392 59.1644 223.944 58.315 223.16C57.6587 222.486 56.929 221.456 55.8548 221.382C53.8858 221.237 52.7919 223.121 51.151 223.734C50.4749 223.927 49.7634 223.981 49.0638 223.892C48.3642 223.803 47.6924 223.573 47.0927 223.217L47.0577 223.188L47.0533 223.187Z" fill="#D2416E"/>
<path fill-rule="evenodd" clip-rule="evenodd" d="M11.5125 226.668C12.3799 228.961 13.6609 231.092 15.2974 232.962C16.8091 234.71 20.3862 236.621 22.2261 236.621H35.423C37.054 236.621 59.6245 236.621 65.3806 235.994C71.1367 235.367 74.0563 235.285 75.5244 234.036C76.9924 232.787 81.7137 226.299 81.7137 226.299C76.0072 226.708 70.2817 226.822 64.5624 226.64C52.7996 226.44 43.7541 226.876 34.7119 226.98C25.6697 227.083 14.5327 226.066 11.5125 226.666V226.668Z" fill="#061428"/>
<path fill-rule="evenodd" clip-rule="evenodd" d="M95.0613 234.624C92.3266 237.503 91.889 239.961 89.9977 244.782L82.7396 263.245C82.4443 263.997 80.5518 261.913 77.0644 258.425C73.5771 254.938 68.2607 249.608 64.6705 246.01L59.2841 240.619C59.5815 240.01 59.8319 239.381 60.0335 238.738C60.118 238.099 60.0135 237.45 59.7318 236.865C59.4501 236.28 59.0024 235.783 58.4397 235.429C57.2473 234.537 53.935 234.186 51.5415 234.182C49.1481 234.179 48.0815 234.607 47.9207 235.387C47.7599 236.167 45.2691 235.945 42.1908 236.158C39.1126 236.372 36.4555 235.591 35.1898 236.645C33.9242 237.698 35.7368 239.288 38.1685 239.895L46.4341 241.964C48.2773 242.426 53.5029 243.732 53.5029 243.732C53.5029 243.732 54.6865 247.265 55.5178 249.498L60.098 261.788C61.647 265.941 65.9974 274.706 68.1929 277.727C70.3884 280.749 74.2597 285.601 81.0594 284.915C87.8591 284.229 94.615 276.508 97.5543 274.23C100.494 271.952 107.618 265.202 107.618 265.202C107.618 265.202 97.7731 231.746 95.0482 234.62L95.0613 234.624Z" fill="#E88D95"/>
<path fill-rule="evenodd" clip-rule="evenodd" d="M145.448 222.514C149.216 228.264 151.902 242.199 151.902 242.199L148.083 243.735C148.083 243.735 146.25 229.738 145.447 222.512L145.448 222.514Z" fill="#DA6771"/>
<path fill-rule="evenodd" clip-rule="evenodd" d="M99.1023 244.317C100.196 249.682 100.648 271.625 100.648 271.625L107.627 265.21C107.627 265.21 98.0084 238.95 99.1023 244.317Z" fill="#DA6771"/>
<path fill-rule="evenodd" clip-rule="evenodd" d="M95.0614 234.624C97.6439 232.142 100.464 229.896 103.484 227.917C105.478 226.781 107.601 225.867 109.812 225.191L121.642 221.02C121.642 221.02 125.799 218.872 128.534 217.535C131.268 216.198 134.703 215.862 136.973 215.299C139.126 214.947 141.315 214.837 143.495 214.97C145.103 220.347 146.253 225.838 146.933 231.392L149.2 255.725C149.147 257.337 148.845 258.934 148.303 260.462L112.614 274.233C112.614 274.233 110.841 270.992 109.236 268.411C107.631 265.829 105.413 259.486 103.711 256.332C102.009 253.178 100.238 246.738 98.6724 243.42C97.107 240.103 95.9289 236.465 95.0625 234.624H95.0614Z" fill="#FBDC8E"/>
<path fill-rule="evenodd" clip-rule="evenodd" d="M106.822 215.326C106.962 215.214 106.779 215.684 106.829 215.854C106.894 216.063 107.008 216.272 107.082 216.481C107.507 217.7 107.98 218.922 108.347 220.158C108.722 221.421 108.938 222.73 109.36 223.98C109.408 224.124 109.514 225.119 109.814 225.191C110.754 225.531 111.719 225.806 112.701 226.013C113.355 226.081 114.015 226.081 114.67 226.013C115.927 225.95 117.147 225.581 118.214 224.943C119.282 224.304 120.161 223.416 120.769 222.362C121.114 221.947 121.408 221.495 121.644 221.015C121.316 219.812 120.857 218.644 120.277 217.531L117.357 210.092" fill="#E88D95"/>
<path d="M118.723 190.22C118.874 189.916 119.138 189.677 119.464 189.548C122.219 188.012 122.954 192.349 121.306 192.998M119.738 185.399C120.257 185.853 120.941 186.097 121.644 186.079C122.15 186.089 122.641 185.918 123.022 185.6C123.403 185.283 123.646 184.841 123.704 184.36L119.738 185.399ZM108.28 188.286C108.328 188.25 108.124 188.193 108.124 188.193C108.124 188.193 108.445 188.402 108.596 188.522C109.034 188.848 109.529 189.099 110.058 189.261C111.934 189.798 114.785 189.385 114.785 186.961L108.28 188.286Z" stroke="#061428" stroke-width="1.587" stroke-linecap="round" stroke-linejoin="round"/>
<path fill-rule="evenodd" clip-rule="evenodd" d="M122.144 196.11C120.024 197.701 117.47 198.678 114.787 198.925C112.898 198.998 111.008 198.842 109.161 198.462C108.91 199.856 108.994 201.286 109.406 202.644C110.044 204.833 111.554 206.696 113.612 207.835C114.558 208.338 115.631 208.581 116.713 208.536C117.794 208.49 118.842 208.159 119.738 207.578C121.441 206.496 122.105 204.576 122.571 202.699C123.211 200.521 123.061 198.199 122.145 196.113L122.144 196.11Z" fill="#DA6771"/>
<path fill-rule="evenodd" clip-rule="evenodd" d="M119.113 214.57C117.401 215.687 115.43 216.388 113.37 216.613C115.271 217.379 116.286 218.166 117.996 218.477L120.95 219.015C120.95 219.015 119.684 215.952 119.109 214.57H119.113Z" fill="#DA6771"/>
<path d="M146.25 167.572C146.723 166.548 147.469 165.661 148.412 164.998" stroke="#DA6771" stroke-width="1.427" stroke-linecap="round" stroke-linejoin="round"/>
<path d="M39.7122 446.395V445.728L38.0473 443.729L34.232 439.229L30.1392 434.469C30.1392 434.469 26.1991 431.849 25.1863 431.396C21.4958 429.756 17.8609 428.503 13.5184 428.503C10.8476 428.503 0.865415 428.89 0.844604 430.503C0.844604 432.896 14.8225 441.955 25.0753 446.355C29.5427 446.395 39.7122 446.395 39.7122 446.395Z" fill="#19A5A1"/>
<path d="M37.596 446.395C23.3683 435.896 -5.66963 378.5 1.77369 357.234C17.6315 365 35.0293 391.779 43.2357 414.391C43.6701 415.862 44.0175 417.355 44.2762 418.864L47.606 433.529L48.4384 446.395H37.596Z" fill="#32CFCB"/>
<path d="M47.3081 446.395C42.5077 442.649 40.9747 431.556 40.933 427.416C40.8567 419.69 42.0915 413.997 48.966 405.498C55.8405 396.998 53.9883 382.893 63.1451 373.387C72.3018 363.881 78.3231 361.234 89.1585 361.234C99.994 361.234 103.428 378.113 103.4 382.359C103.275 399.478 92.0443 401.898 85.2045 410.078C80.2307 416.01 79.8422 420.863 78.3369 423.637C70.2485 438.562 63.7 444.202 58.8442 446.395" fill="#73E5E2"/>
<path d="M49.9303 445.155C50.069 415.937 82.1107 372.053 88.9574 365.474" stroke="white" stroke-width="0.4" stroke-linecap="round" stroke-linejoin="round"/>
<path d="M51.6853 431.896C48.1405 428.183 44.9149 417.657 45.4005 414.924" stroke="white" stroke-width="0.4" stroke-linecap="round" stroke-linejoin="round"/>
<path d="M42.6047 443.895C37.5824 435.323 13.754 393.619 4.84009 362.894" stroke="white" stroke-width="0.4" stroke-linecap="round" stroke-linejoin="round"/>
<path d="M58.8443 446.395H73.7587L61.2722 491.092H27.8848L15.5995 446.395H58.8443Z" fill="#061428"/>
<path d="M5.6936 431.416C12.9704 431.896 22.1272 432.216 28.6201 436.449" stroke="white" stroke-width="0.4" stroke-linecap="round" stroke-linejoin="round"/>
<path d="M219.824 319.233L162.399 490.942" stroke="#061428" stroke-width="4" stroke-miterlimit="10" stroke-linecap="round"/>
<path d="M219.824 319.233L277.233 490.942" stroke="#061428" stroke-width="4" stroke-miterlimit="10" stroke-linecap="round"/>
<path d="M181.249 434.573L245.265 395.352" stroke="#061428" stroke-width="2" stroke-miterlimit="10" stroke-linecap="round"/>
<path d="M219.824 340.824C276.269 340.824 322.027 331.157 322.027 319.233C322.027 307.308 276.269 297.641 219.824 297.641C163.379 297.641 117.621 307.308 117.621 319.233C117.621 331.157 163.379 340.824 219.824 340.824Z" fill="#E8EBF0"/>
<path d="M194.123 395.352L258.124 434.573" stroke="#061428" stroke-width="2" stroke-miterlimit="10" stroke-linecap="round"/>
<path d="M324.594 108.403C324.594 105.425 322.069 103.012 318.953 103.012C315.838 103.012 313.313 105.425 313.313 108.403V127.012C313.313 129.989 315.838 132.403 318.953 132.403C322.069 132.403 324.594 129.989 324.594 127.012V108.403Z" fill="#061428"/>
<path d="M318.953 163.685C325.204 163.685 330.27 158.842 330.27 152.869C330.27 146.895 325.204 142.052 318.953 142.052C312.703 142.052 307.636 146.895 307.636 152.869C307.636 158.842 312.703 163.685 318.953 163.685Z" fill="#FBDC8E"/>
<path d="M318.953 120.258C314.472 120.257 310.034 121.1 305.893 122.738C301.753 124.376 297.99 126.778 294.821 129.806C291.651 132.835 289.137 136.43 287.422 140.387C285.707 144.344 284.824 148.585 284.824 152.869H353.074C353.074 144.22 349.479 135.925 343.08 129.809C336.681 123.694 328.003 120.258 318.953 120.258Z" fill="#AB8DE5"/>
<path d="M318.953 109.22V-9.09357" stroke="#061428" stroke-width="2" stroke-linecap="round" stroke-linejoin="round"/>
</svg>
